<mxfile host="app.diagrams.net" agent="Mozilla/5.0 (Windows NT 10.0; Win64; x64) AppleWebKit/537.36 (KHTML, like Gecko) Chrome/131.0.0.0 Safari/537.36" version="24.8.6">
  <diagram name="Сторінка-1" id="n9H3awZ9bUzEXKp8Cuha">
    <mxGraphModel dx="1432" dy="820" grid="1" gridSize="10" guides="1" tooltips="1" connect="1" arrows="1" fold="1" page="1" pageScale="1" pageWidth="827" pageHeight="1169" math="0" shadow="0">
      <root>
        <mxCell id="0" />
        <mxCell id="1" parent="0" />
        <mxCell id="uQybypnCOsX6_EAeFrFa-15" style="edgeStyle=orthogonalEdgeStyle;rounded=0;orthogonalLoop=1;jettySize=auto;html=1;" edge="1" parent="1" source="uQybypnCOsX6_EAeFrFa-1" target="uQybypnCOsX6_EAeFrFa-2">
          <mxGeometry relative="1" as="geometry" />
        </mxCell>
        <mxCell id="uQybypnCOsX6_EAeFrFa-1" value="start" style="ellipse;whiteSpace=wrap;html=1;" vertex="1" parent="1">
          <mxGeometry x="360" y="20" width="120" height="80" as="geometry" />
        </mxCell>
        <mxCell id="uQybypnCOsX6_EAeFrFa-3" style="edgeStyle=orthogonalEdgeStyle;rounded=0;orthogonalLoop=1;jettySize=auto;html=1;" edge="1" parent="1" source="uQybypnCOsX6_EAeFrFa-2" target="uQybypnCOsX6_EAeFrFa-4">
          <mxGeometry relative="1" as="geometry">
            <mxPoint x="420" y="320" as="targetPoint" />
          </mxGeometry>
        </mxCell>
        <mxCell id="uQybypnCOsX6_EAeFrFa-2" value="&amp;nbsp;seriesSum (рекурсія)" style="rounded=0;whiteSpace=wrap;html=1;" vertex="1" parent="1">
          <mxGeometry x="360" y="170" width="120" height="60" as="geometry" />
        </mxCell>
        <mxCell id="uQybypnCOsX6_EAeFrFa-16" style="edgeStyle=orthogonalEdgeStyle;rounded=0;orthogonalLoop=1;jettySize=auto;html=1;entryX=0.5;entryY=0;entryDx=0;entryDy=0;" edge="1" parent="1" source="uQybypnCOsX6_EAeFrFa-4" target="uQybypnCOsX6_EAeFrFa-5">
          <mxGeometry relative="1" as="geometry" />
        </mxCell>
        <mxCell id="uQybypnCOsX6_EAeFrFa-4" value="if (n == 1)" style="rhombus;whiteSpace=wrap;html=1;" vertex="1" parent="1">
          <mxGeometry x="380" y="280" width="80" height="80" as="geometry" />
        </mxCell>
        <mxCell id="uQybypnCOsX6_EAeFrFa-17" style="edgeStyle=orthogonalEdgeStyle;rounded=0;orthogonalLoop=1;jettySize=auto;html=1;" edge="1" parent="1" source="uQybypnCOsX6_EAeFrFa-5" target="uQybypnCOsX6_EAeFrFa-6">
          <mxGeometry relative="1" as="geometry" />
        </mxCell>
        <mxCell id="uQybypnCOsX6_EAeFrFa-5" value="return 1.0;" style="rounded=0;whiteSpace=wrap;html=1;" vertex="1" parent="1">
          <mxGeometry x="360" y="390" width="120" height="60" as="geometry" />
        </mxCell>
        <mxCell id="uQybypnCOsX6_EAeFrFa-18" style="edgeStyle=orthogonalEdgeStyle;rounded=0;orthogonalLoop=1;jettySize=auto;html=1;" edge="1" parent="1" source="uQybypnCOsX6_EAeFrFa-6" target="uQybypnCOsX6_EAeFrFa-7">
          <mxGeometry relative="1" as="geometry" />
        </mxCell>
        <mxCell id="uQybypnCOsX6_EAeFrFa-6" value="&lt;div&gt;&amp;nbsp; &amp;nbsp; return 1.0 / n + seriesSum(n - 1);&lt;/div&gt;&lt;div&gt;}&lt;/div&gt;" style="rounded=0;whiteSpace=wrap;html=1;" vertex="1" parent="1">
          <mxGeometry x="360" y="510" width="120" height="60" as="geometry" />
        </mxCell>
        <mxCell id="uQybypnCOsX6_EAeFrFa-19" style="edgeStyle=orthogonalEdgeStyle;rounded=0;orthogonalLoop=1;jettySize=auto;html=1;" edge="1" parent="1" source="uQybypnCOsX6_EAeFrFa-7" target="uQybypnCOsX6_EAeFrFa-8">
          <mxGeometry relative="1" as="geometry" />
        </mxCell>
        <mxCell id="uQybypnCOsX6_EAeFrFa-7" value="cout &amp;lt;&amp;lt; &quot;Введіть кількість членів ряду: &quot;;" style="shape=parallelogram;perimeter=parallelogramPerimeter;whiteSpace=wrap;html=1;fixedSize=1;" vertex="1" parent="1">
          <mxGeometry x="360" y="630" width="120" height="60" as="geometry" />
        </mxCell>
        <mxCell id="uQybypnCOsX6_EAeFrFa-21" style="edgeStyle=orthogonalEdgeStyle;rounded=0;orthogonalLoop=1;jettySize=auto;html=1;" edge="1" parent="1" source="uQybypnCOsX6_EAeFrFa-8" target="uQybypnCOsX6_EAeFrFa-9">
          <mxGeometry relative="1" as="geometry" />
        </mxCell>
        <mxCell id="uQybypnCOsX6_EAeFrFa-8" value="&amp;nbsp;cin &amp;gt;&amp;gt; n;" style="shape=parallelogram;perimeter=parallelogramPerimeter;whiteSpace=wrap;html=1;fixedSize=1;" vertex="1" parent="1">
          <mxGeometry x="360" y="760" width="120" height="60" as="geometry" />
        </mxCell>
        <mxCell id="uQybypnCOsX6_EAeFrFa-22" style="edgeStyle=orthogonalEdgeStyle;rounded=0;orthogonalLoop=1;jettySize=auto;html=1;" edge="1" parent="1" source="uQybypnCOsX6_EAeFrFa-9" target="uQybypnCOsX6_EAeFrFa-10">
          <mxGeometry relative="1" as="geometry" />
        </mxCell>
        <mxCell id="uQybypnCOsX6_EAeFrFa-9" value="double sum = seriesSum(n);" style="rounded=0;whiteSpace=wrap;html=1;" vertex="1" parent="1">
          <mxGeometry x="360" y="900" width="120" height="60" as="geometry" />
        </mxCell>
        <mxCell id="uQybypnCOsX6_EAeFrFa-23" style="edgeStyle=orthogonalEdgeStyle;rounded=0;orthogonalLoop=1;jettySize=auto;html=1;" edge="1" parent="1" source="uQybypnCOsX6_EAeFrFa-10" target="uQybypnCOsX6_EAeFrFa-11">
          <mxGeometry relative="1" as="geometry" />
        </mxCell>
        <mxCell id="uQybypnCOsX6_EAeFrFa-10" value="&amp;nbsp;ofstream fout(&quot;result3.txt&quot;);&amp;nbsp;" style="rounded=0;whiteSpace=wrap;html=1;" vertex="1" parent="1">
          <mxGeometry x="360" y="1030" width="120" height="60" as="geometry" />
        </mxCell>
        <mxCell id="uQybypnCOsX6_EAeFrFa-24" style="edgeStyle=orthogonalEdgeStyle;rounded=0;orthogonalLoop=1;jettySize=auto;html=1;" edge="1" parent="1" source="uQybypnCOsX6_EAeFrFa-11" target="uQybypnCOsX6_EAeFrFa-12">
          <mxGeometry relative="1" as="geometry" />
        </mxCell>
        <mxCell id="uQybypnCOsX6_EAeFrFa-11" value="&amp;nbsp;fout &amp;lt;&amp;lt; &quot;Сума перших &quot; &amp;lt;&amp;lt; n &amp;lt;&amp;lt; &quot; членів ряду: &quot; &amp;lt;&amp;lt; sum &amp;lt;&amp;lt; endl;" style="rounded=0;whiteSpace=wrap;html=1;" vertex="1" parent="1">
          <mxGeometry x="360" y="1140" width="120" height="60" as="geometry" />
        </mxCell>
        <mxCell id="uQybypnCOsX6_EAeFrFa-12" value="&amp;nbsp; &amp;nbsp; fout.close();" style="rounded=0;whiteSpace=wrap;html=1;" vertex="1" parent="1">
          <mxGeometry x="360" y="1290" width="120" height="60" as="geometry" />
        </mxCell>
        <mxCell id="uQybypnCOsX6_EAeFrFa-26" style="edgeStyle=orthogonalEdgeStyle;rounded=0;orthogonalLoop=1;jettySize=auto;html=1;" edge="1" parent="1" source="uQybypnCOsX6_EAeFrFa-13" target="uQybypnCOsX6_EAeFrFa-14">
          <mxGeometry relative="1" as="geometry" />
        </mxCell>
        <mxCell id="uQybypnCOsX6_EAeFrFa-13" value="&lt;div&gt;&amp;nbsp; &amp;nbsp;&amp;nbsp;cout &amp;lt;&amp;lt; &quot;Результат записано у файл result3.txt&quot; &amp;lt;&amp;lt; endl;&lt;/div&gt;" style="shape=parallelogram;perimeter=parallelogramPerimeter;whiteSpace=wrap;html=1;fixedSize=1;" vertex="1" parent="1">
          <mxGeometry x="370" y="1410" width="120" height="60" as="geometry" />
        </mxCell>
        <mxCell id="uQybypnCOsX6_EAeFrFa-14" value="end&lt;div&gt;&lt;br&gt;&lt;/div&gt;" style="ellipse;whiteSpace=wrap;html=1;" vertex="1" parent="1">
          <mxGeometry x="360" y="1520" width="120" height="80" as="geometry" />
        </mxCell>
        <mxCell id="uQybypnCOsX6_EAeFrFa-25" style="edgeStyle=orthogonalEdgeStyle;rounded=0;orthogonalLoop=1;jettySize=auto;html=1;entryX=0.392;entryY=0.05;entryDx=0;entryDy=0;entryPerimeter=0;" edge="1" parent="1" source="uQybypnCOsX6_EAeFrFa-12" target="uQybypnCOsX6_EAeFrFa-13">
          <mxGeometry relative="1" as="geometry" />
        </mxCell>
      </root>
    </mxGraphModel>
  </diagram>
</mxfile>
